Coordinates
version=1
nRows=6
nColumns=46
inDegrees=yes

Units are S.I. units (second, meters, Newtons, ...)
Angles are in degrees.

endheader
time	pelvis_tilt	pelvis_list	pelvis_rotation	pelvis_tx	pelvis_ty	pelvis_tz	bb_angle	bb_tx	bb_ty	bb_tz	hip_flexion_r	hip_adduction_r	hip_rotation_r	knee_angle_r	knee_angle_r_beta	ankle_angle_r	subtalar_angle_r	mtp_angle_r	crank_angle_r	hip_flexion_l	hip_adduction_l	hip_rotation_l	knee_angle_l	knee_angle_l_beta	ankle_angle_l	subtalar_angle_l	mtp_angle_l	crank_angle_l	lumbar_extension	lumbar_bending	lumbar_rotation	arm_flex_r	arm_add_r	arm_rot_r	elbow_flex_r	pro_sup_r	wrist_flex_r	wrist_dev_r	arm_flex_l	arm_add_l	arm_rot_l	elbow_flex_l	pro_sup_l	wrist_flex_l	wrist_dev_l
      5.00000000	    -16.32375570	     -8.08489714	     -2.83999606	      0.21387324	      1.04331725	     -0.26885196	      0.00000000	      0.50000000	      0.00000000	      0.25000000	     77.72285073	      5.14111218	      6.17514214	    117.48157679	      2.05044033	      8.15113470	     -2.75354333	      0.00000000	      0.00000000	     43.20884207	    -12.83364480	     -2.31241172	     34.74869285	      0.60647910	     -6.31857183	      1.91684964	      0.00000000	      0.00000000	    -63.44589252	      5.82174668	      3.68267943	     82.95139984	    -10.19726070	     22.71131081	     61.54266766	     49.48763913	      0.00000000	      0.00000000	     85.35867140	    -39.24468697	     43.36704016	     76.24176261	     40.95213342	      0.00000000	      0.00000000
      5.00500000	    -16.33229347	     -8.13377170	     -3.31518132	      0.21426019	      1.04441584	     -0.26971031	      0.00000000	      0.50000000	      0.00000000	      0.25000000	     78.83093605	      5.60450737	      6.68594800	    117.78530183	      2.05574133	      8.98447024	     -1.60794752	      0.00000000	      0.00000000	     41.99449160	    -13.16229002	     -3.04876016	     33.89969635	      0.59166132	     -7.05394642	      2.12897817	      0.00000000	      0.00000000	    -63.67602898	      6.18747948	      3.98580749	     84.13708234	    -10.49509553	     25.13531648	     60.58909023	     49.60750196	      0.00000000	      0.00000000	     84.34548800	    -39.42358038	     41.78148059	     76.30093800	     41.18813841	      0.00000000	      0.00000000
      5.01000000	    -16.60547451	     -8.26919528	     -3.76974312	      0.21451136	      1.04514461	     -0.27021359	      0.00000000	      0.50000000	      0.00000000	      0.25000000	     80.14686891	      6.09179583	      6.88548798	    117.87868056	      2.05737109	      9.49745120	     -1.48061798	      0.00000000	      0.00000000	     41.21619284	    -13.55697464	     -3.64497059	     33.30959546	      0.58136211	     -7.58684644	      2.26476856	      0.00000000	      0.00000000	    -63.65353771	      6.53627387	      4.50710728	     84.68548967	    -10.32611815	     25.27016620	     60.71333667	     49.63488488	      0.00000000	      0.00000000	     83.96610319	    -39.60941047	     41.80509288	     76.15548941	     41.20289101	      0.00000000	      0.00000000
      5.01500000	    -16.72290348	     -8.25430588	     -4.28860471	      0.21483726	      1.04637648	     -0.27064536	      0.00000000	      0.50000000	      0.00000000	      0.25000000	     81.19805330	      6.54832950	      7.27515833	    117.84848259	      2.05684404	     10.37509406	     -0.59621301	      0.00000000	      0.00000000	     40.28166155	    -13.90702852	     -4.65906802	     32.86362115	      0.57357839	     -8.20329882	      2.50000745	      0.00000000	      0.00000000	    -63.77603939	      6.79504148	      4.70710310	     85.64799334	    -10.29754654	     26.98139377	     59.87031588	     49.66246667	      0.00000000	      0.00000000	     83.06025734	    -39.97159024	     40.69169174	     76.21866690	     41.40449493	      0.00000000	      0.00000000
      5.02000000	    -17.01230412	     -8.35269691	     -4.75427362	      0.21513391	      1.04745852	     -0.27091434	      0.00000000	      0.50000000	      0.00000000	      0.25000000	     82.31631333	      7.06031704	      7.41941504	    117.62201172	      2.05289138	     11.01890232	     -0.46196392	      0.00000000	      0.00000000	     39.65434186	    -14.28796309	     -5.36296442	     32.62752391	      0.56945772	     -8.70406408	      2.42428740	      0.00000000	      0.00000000	    -63.76904023	      7.11302624	      5.03019116	     86.35505638	    -10.13500098	     28.06150893	     59.42642380	     49.67248619	      0.00000000	      0.00000000	     82.39447572	    -40.32616804	     40.08020528	     76.23253025	     41.56959700	      0.00000000	      0.00000000
      5.02500000	    -17.30141868	     -8.42247545	     -5.08860685	      0.21522182	      1.04859634	     -0.27125531	      0.00000000	      0.50000000	      0.00000000	      0.25000000	     83.34884902	      7.35010339	      7.56821589	    117.21982064	      2.04587182	     11.78700066	      0.08190848	      0.00000000	      0.00000000	     39.15609244	    -14.54986663	     -5.89180023	     32.55169103	      0.56813419	     -9.19554695	      2.37465384	      0.00000000	      0.00000000	    -63.76176041	      7.49901352	      5.19776269	     87.18195514	    -10.10398946	     29.41000249	     58.88910711	     49.63272364	      0.00000000	      0.00000000	     81.73801440	    -40.60203455	     38.95997404	     76.16084570	     41.82224560	      0.00000000	      0.00000000
